<svg width="80" height="80" viewBox="0 0 80 80" xmlns="http://www.w3.org/2000/svg"><title>feature-battery</title><g fill="none" fill-rule="evenodd"><path d="M79.5 40C79.5 18.185 61.815.5 40 .5S.5 18.185.5 40 18.185 79.5 40 79.5 79.5 61.815 79.5 40z" stroke="#000"/><path d="M21.062 49.5c-4.735 0-8.562-4.035-8.562-9 0-4.964 3.828-9 8.562-9h38.876c4.734 0 8.562 4.036 8.562 9 0 4.965-3.827 9-8.562 9H21.062z" stroke="#000" stroke-linecap="round" stroke-linejoin="round"/><path fill="#000" d="M41 41v4l-10-7 8 2v-4l10 7z"/></g></svg>