<svg width="80" height="80" viewBox="0 0 80 80" xmlns="http://www.w3.org/2000/svg"><title>feature-fit</title><g fill="none" fill-rule="evenodd"><path d="M79.5 40C79.5 18.185 61.815.5 40 .5S.5 18.185.5 40 18.185 79.5 40 79.5 79.5 61.815 79.5 40z" stroke="#000"/><path d="M33.422 48.023c-2.896-2.302-5.795-13.48-2.024-21.317 2.722-5.66 8.12-7.582 11.077-7.447 7.524.34 8.84 9.15 5.005 12.03-3.836 2.88-5.622 3.79-7.98 5.51m-.918 9.61c1.623 1.6 4.012 2.51 5.872 5.54.828 1.35 2.745 3.17 4.665 1.39 1.62-1.52.27-4.62 0-6.94-.27-2.19-.14-4.74 1.62-6.49" stroke="#000" stroke-linecap="round"/><path d="M36.538 42.695a6.507 6.507 0 0 0 7.157 5.767 6.506 6.506 0 0 0 5.767-7.157 6.506 6.506 0 0 0-7.157-5.767 6.507 6.507 0 0 0-5.767 7.157z" stroke="#000"/><path d="M43.925 39.154A2.995 2.995 0 0 1 46 42.002a2.997 2.997 0 0 1-3 2.993c-1.657 0-3-1.34-3-2.993a2.996 2.996 0 0 1 2.467-2.946.743.743 0 0 0 .533-.946c.358.158.634.467.746.848a.3.3 0 0 0 .18.196zM43 43.847a1.313 1.313 0 1 0 0-2.626 1.313 1.313 0 0 0 0 2.63z" fill="#000"/><path d="M55.697 29.75s-2.052-16.832-17.563-14.534c-1.15.124-16.014 2.595-12.636 25.894 1.9 9.542 5.76 9.37 10.505 19.235 1.744 3.595 6.895 7.308 12.477.598" stroke="#000" stroke-linecap="round"/></g></svg>