<svg width="80" height="80" viewBox="0 0 80 80" xmlns="http://www.w3.org/2000/svg"><title>feature-splashproof</title><g fill="none" fill-rule="evenodd" stroke="#000"><path d="M40 79.5c21.815 0 39.5-17.685 39.5-39.5S61.815.5 40 .5.5 18.185.5 40 18.185 79.5 40 79.5z"/><path d="M49.958 31.51c2.63 3.654 4.436 6.507 5.904 9.498.862 1.755 1.32 2.974 1.53 4.318.323 2.066-.086 4.078-1.164 5.96-2.016 3.52-5.114 5.294-9.114 5.21-4.89-.1-9.047-4.064-9.57-9.043-.193-1.82.215-3.44 1.224-5.685 1.27-2.817 2.87-5.448 5.343-8.98.21-.302.43-.61.67-.94.47-.654 2.13-2.912 2.29-3.142l.4-.55.41.546c.11.15 1.41 1.88 1.77 2.372l.32.436zm-16.826-1.36c.8 2.26.286 4.342-1.436 6.048-1.72 1.703-3.863 2.193-6.15 1.403-2.216-.76-3.565-2.4-3.98-4.78-.182-1.04.003-2 .51-3.26 1.084-2.69 2.435-5.01 4.936-8.75.074-.09.074-.09.14-.14a1.91 1.91 0 0 1 .15-.08l.413-.24.26.4a394.53 394.53 0 0 0 .678 1.06c2.453 3.806 3.574 5.81 4.48 8.366z" stroke-linecap="round" stroke-linejoin="round"/></g></svg>