<svg width="50" height="50" viewBox="0 0 50 50" xmlns="http://www.w3.org/2000/svg"><title>store-feature-warranty</title><g fill="none" fill-rule="evenodd"><path d="M49.5 25c0 13.53-10.97 24.5-24.5 24.5S.5 38.53.5 25 11.47.5 25 .5 49.5 11.47 49.5 25z" stroke="#000"/><path d="M25.003 15.662c1.634-1.45 3.485-2.173 5.618-2.162 4.27.023 7.82 3.592 7.88 7.892.05 3.58-1.32 6.62-3.47 9.354-2.47 3.134-5.57 5.496-9.01 7.446-.6.344-1.23.436-1.85.09-4.06-2.278-7.68-5.09-10.27-9.057-1.69-2.585-2.6-5.407-2.35-8.552.28-3.413 3.25-6.577 6.61-7.064 2.6-.38 4.86.31 6.86 2.05" stroke="#000" stroke-linecap="round" stroke-linejoin="round"/><path d="M20.5 26.5c0 2.21 2.015 4 4.5 4s4.5-1.79 4.5-4" stroke="#000" stroke-linecap="round" stroke-linejoin="round"/><path d="M20 22.508A1.496 1.496 0 0 1 18.48 24 1.49 1.49 0 0 1 17 22.47 1.49 1.49 0 0 1 18.495 21 1.493 1.493 0 0 1 20 22.508m13 0A1.496 1.496 0 0 1 31.48 24 1.49 1.49 0 0 1 30 22.47 1.49 1.49 0 0 1 31.495 21 1.493 1.493 0 0 1 33 22.508" fill="#000"/></g></svg>