<svg width="40" height="40" viewBox="0 0 40 40" xmlns="http://www.w3.org/2000/svg"><title>feature-tws-xs</title><g stroke="#000" fill="none" fill-rule="evenodd"><path d="M39.5 20C39.5 9.23 30.77.5 20 .5S.5 9.23.5 20 9.23 39.5 20 39.5 39.5 30.77 39.5 20z"/><path d="M9 26v.5m0-.5v.5m1.5-1V27m18-1v.5m-3-.5v.5m6-.5v.5M12 24v4.5m1.5-6.5v8.5M15 24v4.5m1.5-3.5v2.5m1.5-2V27m1.5-1.5V27m3-1.5V27m1.5-2.5V28m3-3v2.5m3-1.5v.5M21 25v2.5M9 14v.5m0-.5v.5m1.5-.5v.5m18-.5v.5m-3-.5v.5m6-.5v.5m-19.5-2V16m1.5-6v8.5m1.5-6V16m1.5-4v4.5m1.5-3V15m1.5-1.5V15m3-1.5V15m1.5-1.5V15m3-1v.5m3-1.5v2.5m-9-3V16" stroke-linecap="round" stroke-linejoin="round"/></g></svg>