<svg width="80" height="80" viewBox="0 0 80 80" xmlns="http://www.w3.org/2000/svg"><title>feature-tws</title><g fill="none" fill-rule="evenodd" stroke="#000"><path d="M79.5 40C79.5 18.185 61.815.5 40 .5S.5 18.185.5 40 18.185 79.5 40 79.5 79.5 61.815 79.5 40z"/><path d="M18 52v1m0-1v1m3-2v3m36-2v1m-6-1v1m12-1v1m-39-5v9m3-13v17m3-13v9m3-7v5m3-4v3m3-3v3m6-3v3m3-5v7m6-6v5m6-3v1m-18-3v5M18 28v1m0-1v1m3-1v1m36-1v1m-6-1v1m12-1v1m-39-4v7m3-12v17m3-12v7m3-8v9m3-6v3m3-3v3m6-3v3m3-3v3m6-2v1m6-3v5m-18-6v7" stroke-linecap="round" stroke-linejoin="round"/></g></svg>