<svg width="29" height="29" viewBox="0 0 29 29" xmlns="http://www.w3.org/2000/svg"><title>Oval 4 Copy</title><g fill="none" fill-rule="evenodd"><path d="M11.656 15.588a2.844 2.844 0 1 1 5.688 0 2.844 2.844 0 0 1-5.688 0zm4.46-7.752A2.915 2.915 0 0 0 14.5 6a1.61 1.61 0 0 1-1.154 2.05C10.306 8.594 8 11.243 8 14.432c0 3.582 2.91 6.486 6.5 6.486s6.5-2.904 6.5-6.486a6.49 6.49 0 0 0-4.495-6.17.658.658 0 0 1-.39-.426z" fill="#000" opacity=".4"/><circle stroke="#000" opacity=".6" cx="14.5" cy="14.5" r="14"/></g></svg>