<svg width="40" height="40" viewBox="0 0 40 40" xmlns="http://www.w3.org/2000/svg"><title>feature-battery-xs</title><g fill="none" fill-rule="evenodd"><path d="M39.5 20C39.5 9.23 30.77.5 20 .5S.5 9.23.5 20 9.23 39.5 20 39.5 39.5 30.77 39.5 20z" stroke="#000"/><path d="M10.53 25C8.024 25 6 22.868 6 20.25c0-2.617 2.023-4.75 4.53-4.75h19.44c2.507 0 4.53 2.133 4.53 4.75 0 2.618-2.023 4.75-4.53 4.75H10.53z" stroke="#000" stroke-linecap="round" stroke-linejoin="round"/><path fill="#000" d="M20.5 20.5v2l-5-3.5 4 1v-2l5 3.5z"/></g></svg>