<svg width="80" height="80" viewBox="0 0 80 80" xmlns="http://www.w3.org/2000/svg"><title>feature-colors</title><g fill="none" fill-rule="evenodd"><path d="M79.5 40C79.5 18.185 61.815.5 40 .5S.5 18.185.5 40 18.185 79.5 40 79.5 79.5 61.815 79.5 40z" stroke="#000"/><path d="M43.483 15.343a.5.5 0 0 1 .403.578l-.17.99a.496.496 0 0 1-.574.41 20.8 20.8 0 0 0-3.604-.32c-1.24 0-2.468.11-3.675.33a.496.496 0 0 1-.575-.4l-.174-.98a.5.5 0 0 1 .4-.58A22.762 22.762 0 0 1 39.54 15c1.33 0 2.648.115 3.945.343zm13.618 7.05a.5.5 0 0 1-.01.705l-.71.697a.496.496 0 0 1-.7-.008 20.8 20.8 0 0 0-2.73-2.372 20.794 20.794 0 0 0-3.16-1.897.496.496 0 0 1-.22-.665l.44-.9a.5.5 0 0 1 .67-.232 22.78 22.78 0 0 1 3.46 2.08 22.42 22.42 0 0 1 2.99 2.6zM64 36.17a.5.5 0 0 1-.425.56l-.99.14a.496.496 0 0 1-.563-.42 20.8 20.8 0 0 0-.817-3.525 20.794 20.794 0 0 0-1.444-3.394.496.496 0 0 1 .21-.67l.89-.47a.5.5 0 0 1 .68.21 22.762 22.762 0 0 1 1.59 3.72 22.6 22.6 0 0 1 .88 3.85zm-2.46 15.234a.5.5 0 0 1-.676.205l-.884-.47a.496.496 0 0 1-.21-.67 20.8 20.8 0 0 0 1.412-3.34 20.7 20.7 0 0 0 .826-3.6.496.496 0 0 1 .562-.42l.99.14a.5.5 0 0 1 .428.56 22.762 22.762 0 0 1-.904 3.93 22.766 22.766 0 0 1-1.547 3.64zM50.654 62.29a.5.5 0 0 1-.665-.232l-.45-.897a.496.496 0 0 1 .22-.66 20.8 20.8 0 0 0 3.1-1.86 20.794 20.794 0 0 0 2.78-2.42.496.496 0 0 1 .7-.01l.72.7a.5.5 0 0 1 .01.71c-.93.97-1.95 1.86-3.05 2.65a22.766 22.766 0 0 1-3.4 2.04zm-15.138 2.367a.5.5 0 0 1-.403-.578l.17-.99a.496.496 0 0 1 .574-.41 20.8 20.8 0 0 0 3.603.32c1.24 0 2.47-.11 3.676-.33a.496.496 0 0 1 .575.4l.18.98a.5.5 0 0 1-.4.58 22.762 22.762 0 0 1-4.03.36 22.72 22.72 0 0 1-3.94-.35zM21.9 57.607a.5.5 0 0 1 .013-.705l.717-.697a.496.496 0 0 1 .703.008 20.8 20.8 0 0 0 2.732 2.372 20.794 20.794 0 0 0 3.165 1.897c.246.12.348.417.227.665l-.438.9a.5.5 0 0 1-.67.232 22.762 22.762 0 0 1-3.46-2.08 22.766 22.766 0 0 1-2.99-2.6zM15.004 43.83a.5.5 0 0 1 .425-.56l.99-.143a.495.495 0 0 1 .56.42 20.8 20.8 0 0 0 .81 3.525 20.815 20.815 0 0 0 1.44 3.394.5.5 0 0 1-.21.672l-.89.47a.5.5 0 0 1-.68-.203 22.762 22.762 0 0 1-1.59-3.715 22.766 22.766 0 0 1-.89-3.86zm2.46-15.237a.5.5 0 0 1 .676-.205l.885.466c.245.13.338.43.21.67a20.8 20.8 0 0 0-1.412 3.333 20.678 20.678 0 0 0-.826 3.595.496.496 0 0 1-.562.422l-.99-.14a.5.5 0 0 1-.428-.56 22.797 22.797 0 0 1 2.45-7.582zm10.88-10.882a.5.5 0 0 1 .665.24l.44.9a.496.496 0 0 1-.23.67 20.8 20.8 0 0 0-3.1 1.87 20.794 20.794 0 0 0-2.78 2.43.496.496 0 0 1-.71.01l-.72-.69a.5.5 0 0 1-.02-.7 22.81 22.81 0 0 1 3.04-2.65 22.766 22.766 0 0 1 3.39-2.04z" stroke="#FFF" stroke-width=".5" fill="#000" fill-rule="nonzero"/></g></svg>