<svg width="80" height="80" viewBox="0 0 80 80" xmlns="http://www.w3.org/2000/svg"><title>feature-nanotube</title><g fill="none" fill-rule="evenodd"><path d="M79 40C79 18.46 61.54 1 40 1S1 18.46 1 40s17.46 39 39 39 39-17.46 39-39z" stroke="#000"/><circle fill="#000" cx="29.5" cy="21.5" r="2"/><circle fill="#000" cx="19" cy="27.5" r="2"/><circle fill="#000" cx="40" cy="28" r="2"/><circle fill="#000" cx="61" cy="27.5" r="2"/><circle fill="#000" cx="19" cy="39.5" r="2"/><circle fill="#000" cx="40" cy="39.5" r="2"/><circle fill="#000" cx="40" cy="63.5" r="2"/><circle fill="#000" cx="29.5" cy="45.5" r="2"/><circle fill="#000" cx="50.5" cy="45.5" r="2"/><circle fill="#000" cx="50.5" cy="21.5" r="2"/><circle fill="#000" cx="29.5" cy="57.5" r="2"/><circle fill="#000" cx="50.5" cy="57.5" r="2"/><circle fill="#000" cx="61" cy="39.5" r="2"/><path stroke="#000" d="M29.5 21.5l10.5 6v12l-10.5 6-10.5-6v-12zm21 0l10.5 6v12l-10.5 6-10.5-6v-12z"/><path stroke="#000" d="M40 39.5l10.5 6v12l-10.5 6-10.5-6v-12z"/></g></svg>