<svg width="24" height="22" viewBox="0 0 24 22" xmlns="http://www.w3.org/2000/svg"><title>youtube</title><g fill="none" fill-rule="evenodd"><path d="M-1064-54H376v250h-1440z"/><path d="M-1064-54H376v250h-1440z"/><path d="M9.522 13.635v-6.79l6.484 3.406-6.484 3.39zM23.76 5.667s-.234-1.665-.954-2.4c-.912-.96-1.935-.966-2.405-1.022C17.05 2 12.01 2 12.01 2H12s-5.04 0-8.397.245c-.47.056-1.49.06-2.404 1.023-.72.734-.96 2.4-.96 2.4S0 7.622 0 9.578v1.834c0 1.956.24 3.912.24 3.912s.234 1.666.954 2.4c.913.962 2.112.93 2.646 1.032C5.76 18.943 12 19 12 19s5.043-.008 8.4-.252c.47-.056 1.494-.06 2.406-1.024.72-.733.954-2.4.954-2.4s.24-1.955.24-3.91V9.578c0-1.957-.24-3.913-.24-3.913z" fill="#000"/></g></svg>