<svg width="29" height="97" viewBox="0 0 29 97" xmlns="http://www.w3.org/2000/svg"><title>Group 39</title><g fill="none" fill-rule="evenodd"><path d="M26.544 96.076c.546-.68.885-1.49.885-2.3 0-.875-.41-1.58-1.22-1.58-2 0-.88 4.313-4.05 4.313-1.73 0-2.67-1.28-2.67-2.88 0-1.01.37-2.05 1.01-2.83l1.05.66c-.44.58-.73 1.38-.73 2.06 0 .83.45 1.49 1.21 1.49 1.97 0 .79-4.35 4.04-4.35 1.82 0 2.7 1.36 2.7 3.02 0 1.18-.46 2.21-1.18 3.05l-1.08-.68zm.148-14.058l1.08-.675c.66.757 1.027 1.9 1.027 2.93 0 2.41-2 4.176-4.62 4.176-2.67 0-4.69-1.83-4.69-4.23 0-1.02.37-2.1 1.04-2.87l1.05.66c-.46.59-.74 1.35-.74 2.08 0 1.65 1.42 2.81 3.29 2.81 1.85 0 3.27-1.13 3.27-2.79 0-.76-.3-1.55-.73-2.12zm1.978-3.227h-9.04v-2.96c0-1.86 1.184-2.95 2.807-2.95 1.233 0 2.204.63 2.62 1.7l3.613-2.02v1.75l-3.394 1.78v1.23h3.394v1.48zm-4.73-1.48v-1.29c0-1.05-.532-1.64-1.48-1.64-.994 0-1.497.65-1.497 1.64v1.29h2.976zm4.86-11.1c0 2.44-1.995 4.26-4.655 4.26-2.69 0-4.645-1.86-4.645-4.27 0-2.41 1.958-4.25 4.634-4.25 2.67 0 4.665 1.83 4.665 4.27zm-1.355 0c0-1.58-1.396-2.73-3.296-2.73-1.92 0-3.3 1.16-3.3 2.73 0 1.58 1.38 2.73 3.29 2.73 1.9 0 3.29-1.14 3.29-2.73zm1.225-7.05h-9.04v-1.5h7.702V54h1.338v5.164zm0-7.62h-9.04v-1.49h7.702v-3.67h1.338v5.17zm0-14.37v2.84h-9.04v-2.85c0-2.66 1.988-4.06 4.52-4.06 2.574 0 4.52 1.45 4.52 4.08zm-1.342 1.34v-1.13c0-1.87-1.018-2.78-3.167-2.78-2.22 0-3.19.97-3.19 2.75v1.17h6.36zm1.47-11.97c0 2.44-1.993 4.26-4.653 4.26-2.69 0-4.645-1.87-4.645-4.27 0-2.41 1.958-4.25 4.634-4.25 2.67 0 4.665 1.84 4.665 4.27zm-1.353 0c0-1.58-1.396-2.73-3.296-2.73-1.92 0-3.3 1.16-3.3 2.73 0 1.58 1.38 2.73 3.29 2.73 1.9 0 3.29-1.14 3.29-2.73zm-7.815-6.03v-1.59l6.666-1.75-5.472-1.52V14.3l5.5-1.568-6.697-1.747V9.44l9.04 2.657v1.373l-5.31 1.54 5.31 1.49v1.378l-9.04 2.633zm2.5-14.97l6.537-.02v1.44h-9.04V5.3l6.59-3.678-6.59.024V.21h9.04v1.677L22.13 5.532z" fill="#000"/><path d="M5.25 72.75V89" stroke="#000" stroke-width="1.5" stroke-linecap="square"/><path d="M2.032 89.75l3.218 5.72 3.218-5.72H2.032z" stroke="#000" stroke-width="1.5"/></g></svg>