<svg width="24" height="22" viewBox="0 0 24 22" xmlns="http://www.w3.org/2000/svg"><title>facebook</title><g fill="none" fill-rule="evenodd"><path d="M-1142-54H298v250h-1440z"/><path d="M-1142-54H298v250h-1440z"/><path d="M20.896 1H3.104C2.494 1 2 1.494 2 2.104v17.792C2 20.506 2.494 21 3.104 21h9.58v-7.745h-2.608v-3.018h2.607V8.01c0-2.583 1.577-3.99 3.882-3.99 1.104 0 2.052.083 2.33.12v2.7h-1.6c-1.253 0-1.495.596-1.495 1.47v1.927h2.99l-.39 3.018h-2.6V21h5.096c.61 0 1.104-.494 1.104-1.104V2.104C22 1.494 21.506 1 20.896 1" fill="#000"/></g></svg>