<svg width="40" height="40" viewBox="0 0 40 40" xmlns="http://www.w3.org/2000/svg"><title>feature-fit-xs</title><g fill="none" fill-rule="evenodd"><path d="M39.5 20C39.5 9.23 30.77.5 20 .5S.5 9.23.5 20 9.23 39.5 20 39.5 39.5 30.77 39.5 20z" stroke="#000"/><path d="M16.91 23.886c-1.448-1.15-2.898-6.74-1.012-10.66 1.36-2.83 4.06-3.79 5.538-3.723 3.762.172 4.42 4.577 2.503 6.02-1.92 1.442-2.82 1.897-3.99 2.757m-.46 4.804c.81.804 2 1.258 2.93 2.773.41.675 1.37 1.588 2.33.694.81-.75.14-2.3 0-3.46-.13-1.09-.07-2.36.81-3.24" stroke="#000" stroke-linecap="round"/><path d="M18.517 21.32a3.003 3.003 0 0 0 3.304 2.663 3.003 3.003 0 0 0 2.67-3.304 3.003 3.003 0 0 0-3.3-2.67 3.003 3.003 0 0 0-2.66 3.3z" stroke="#000"/><path d="M21.963 19.522a1.497 1.497 0 0 1-.463 2.92 1.498 1.498 0 0 1-.267-2.97A.37.37 0 0 0 21.5 19c.18.08.317.234.373.424.013.045.047.08.09.098zM21.5 21.87a.657.657 0 1 0 0-1.314.657.657 0 0 0 0 1.313z" fill="#000"/><path d="M27.85 14.875s-1.027-8.416-8.783-7.267c-.575.062-8.007 1.297-6.318 12.947.95 4.77 2.88 4.684 5.25 9.617.87 1.798 3.44 3.654 6.24.3" stroke="#000" stroke-linecap="round"/></g></svg>