<svg width="23" height="26" viewBox="0 0 23 26" xmlns="http://www.w3.org/2000/svg"><title>Combined Shape</title><path d="M14.875 3.937c4.778 1.436 8.215 5.835 8.123 10.98-.11 6.227-5.35 11.186-11.7 11.077C4.95 25.886-.107 20.75.003 14.524c.092-5.15 3.69-9.433 8.523-10.7 1.51-.443 2.406-2.043 1.94-3.534a5.076 5.076 0 0 1 2.458 1.818c.565.782.956 1.5 1.952 1.83zM11.5 22.057c2.858 0 5.175-2.27 5.175-5.073 0-2.803-2.317-5.074-5.175-5.074-2.858 0-5.174 2.27-5.174 5.074 0 2.802 2.316 5.074 5.174 5.074z" fill="#FFF" fill-rule="evenodd"/></svg>