<svg width="50" height="50" viewBox="0 0 50 50" xmlns="http://www.w3.org/2000/svg"><title>store-feature-delivery</title><g fill="none" fill-rule="evenodd" stroke="#000"><path d="M49.5 25c0 13.53-10.97 24.5-24.5 24.5S.5 38.53.5 25 11.47.5 25 .5 49.5 11.47 49.5 25z"/><path d="M22.607 14.844v8.923c0 .098-.052.19-.144.237l-8.818 4.19a.262.262 0 0 0-.145.236v.666a.26.26 0 0 0 .312.254l8.49-1.683a.263.263 0 0 1 .31.254v6.38c0 .11-.074.21-.172.25l-2.882 1a.27.27 0 0 0-.173.25v.52c0 .16.138.29.29.26l5.282-.77h.075l5.283.78a.256.256 0 0 0 .29-.25v-.54a.277.277 0 0 0-.175-.25l-2.87-1a.27.27 0 0 1-.173-.25v-6.4a.26.26 0 0 1 .312-.25l8.48 1.69a.263.263 0 0 0 .31-.25v-.66a.262.262 0 0 0-.15-.23L27.52 24a.262.262 0 0 1-.15-.24v-8.93c0-1.834-1.08-3.315-2.4-3.315-1.32.03-2.39 1.518-2.39 3.346z"/></g></svg>