<svg width="24" height="22" viewBox="0 0 24 22" xmlns="http://www.w3.org/2000/svg"><title>twitter</title><g fill="none" fill-rule="evenodd"><path d="M-1102-54H338v250h-1440z"/><path d="M-1102-54H338v250h-1440z"/><path d="M21.558 6.635c0-.22-.005-.437-.014-.653A10.162 10.162 0 0 0 24 3.368a9.64 9.64 0 0 1-2.828.795 5.045 5.045 0 0 0 2.165-2.793 9.72 9.72 0 0 1-3.126 1.225A4.863 4.863 0 0 0 16.62 1c-2.72 0-4.925 2.26-4.925 5.05 0 .395.043.78.128 1.15C7.73 6.99 4.1 4.98 1.67 1.925a5.13 5.13 0 0 0-.666 2.537 5.08 5.08 0 0 0 2.19 4.203 4.796 4.796 0 0 1-2.23-.632v.065c0 2.445 1.697 4.487 3.95 4.95a4.823 4.823 0 0 1-2.224.086c.627 2.006 2.445 3.466 4.6 3.507A9.727 9.727 0 0 1 0 18.74 13.69 13.69 0 0 0 7.548 21c9.057 0 14.01-7.694 14.01-14.365z" fill="#000"/></g></svg>