<svg width="24" height="22" viewBox="0 0 24 22" xmlns="http://www.w3.org/2000/svg"><title>instagram</title><g fill="none" fill-rule="evenodd"><path d="M-1026-54H414v250h-1440z"/><path d="M-1026-54H414v250h-1440z"/><path d="M11.997.007c2.986 0 3.36.013 4.533.066 1.17.054 1.97.24 2.67.51a5.39 5.39 0 0 1 1.947 1.27 5.39 5.39 0 0 1 1.27 1.947c.27.7.456 1.5.51 2.67.053 1.173.066 1.547.066 4.533 0 2.987-.013 3.36-.066 4.534-.054 1.17-.24 1.97-.51 2.67a5.39 5.39 0 0 1-1.27 1.947 5.39 5.39 0 0 1-1.947 1.27c-.7.27-1.5.456-2.67.51-1.173.053-1.547.066-4.533.066-2.987 0-3.36-.013-4.534-.066-1.17-.054-1.97-.24-2.67-.51a5.39 5.39 0 0 1-1.947-1.27 5.39 5.39 0 0 1-1.27-1.947c-.27-.7-.456-1.5-.51-2.67C1.013 14.364 1 13.99 1 11.003c0-2.986.013-3.36.066-4.533.054-1.17.24-1.97.51-2.67a5.39 5.39 0 0 1 1.27-1.947A5.39 5.39 0 0 1 4.793.583c.7-.27 1.5-.456 2.67-.51C8.636.02 9.01.007 11.997.007zm0 1.98c-2.937 0-3.284.013-4.444.065-1.072.05-1.654.228-2.042.38a3.4 3.4 0 0 0-1.26.822c-.38.384-.62.75-.82 1.264-.15.388-.33.97-.38 2.042-.05 1.16-.06 1.507-.06 4.443 0 2.937.02 3.284.07 4.444.05 1.072.23 1.654.38 2.042.2.51.44.88.82 1.26.39.38.75.62 1.27.82.39.15.97.33 2.05.38 1.16.05 1.51.06 4.45.06 2.94 0 3.29-.02 4.45-.07 1.07-.05 1.65-.23 2.04-.38.51-.2.88-.44 1.26-.82.39-.39.62-.75.82-1.27.15-.39.33-.97.38-2.05.05-1.16.07-1.51.07-4.45 0-2.94-.01-3.29-.06-4.45-.05-1.07-.23-1.66-.38-2.04a3.42 3.42 0 0 0-.82-1.27 3.407 3.407 0 0 0-1.26-.82c-.39-.15-.97-.33-2.04-.38-1.16-.05-1.5-.06-4.44-.06zm0 3.37a5.647 5.647 0 1 1 0 11.293 5.647 5.647 0 0 1 0-11.293zm0 9.312a3.665 3.665 0 1 0 0-7.34 3.665 3.665 0 0 0 0 7.33zm7.19-9.54a1.32 1.32 0 1 1-2.64 0 1.32 1.32 0 0 1 2.64 0z" fill="#000"/></g></svg>