<svg width="40" height="40" viewBox="0 0 40 40" xmlns="http://www.w3.org/2000/svg"><title>feature-splashproof-xs</title><g stroke="#000" fill="none" fill-rule="evenodd"><path d="M20 39.5c10.77 0 19.5-8.73 19.5-19.5S30.77.5 20 .5.5 9.23.5 20 9.23 39.5 20 39.5z"/><path d="M25.182 15.61c1.322 1.836 2.232 3.273 2.974 4.784.44.898.678 1.528.787 2.23.17 1.09-.045 2.155-.612 3.143-1.05 1.84-2.68 2.775-4.77 2.732-2.57-.06-4.75-2.14-5.03-4.75-.1-.97.12-1.82.64-2.97.64-1.43 1.45-2.75 2.7-4.53l.34-.48a366.88 366.88 0 0 1 1.15-1.57l.4-.55.41.54c.06.07.71.94.89 1.18l.16.22zm-8.382-.618c.434 1.222.152 2.364-.776 3.285-.927.918-2.1 1.186-3.332.76-1.196-.414-1.932-1.31-2.155-2.585-.1-.577 0-1.1.27-1.77.55-1.365 1.232-2.536 2.49-4.422.072-.09.072-.09.134-.137l.1-.055.42-.24.26.402.2.308.14.22c1.24 1.917 1.81 2.932 2.27 4.234z" stroke-linecap="round" stroke-linejoin="round"/></g></svg>