<svg width="50" height="50" viewBox="0 0 50 50" xmlns="http://www.w3.org/2000/svg"><title>store-feature-support</title><g fill="none" fill-rule="evenodd" stroke="#000"><path d="M49.5 25c0 13.53-10.97 24.5-24.5 24.5S.5 38.53.5 25 11.47.5 25 .5 49.5 11.47 49.5 25z"/><path d="M29.638 35.586l-.38 1.543a75.387 75.387 0 0 1-2.724 1.02c-.678.23-1.465.35-2.362.35-1.38 0-2.45-.34-3.215-1.01-.764-.67-1.147-1.52-1.147-2.55 0-.4.03-.81.087-1.23.057-.42.15-.89.275-1.42l1.414-5.01c.127-.48.233-.94.32-1.37a6.1 6.1 0 0 0 .128-1.18c0-.64-.132-1.09-.396-1.34s-.77-.38-1.517-.38a3.97 3.97 0 0 0-1.13.17 15.54 15.54 0 0 0-.99.32l.38-1.54c.93-.38 1.82-.7 2.68-.97a8 8 0 0 1 2.42-.4c1.37 0 2.42.33 3.17.98.74.66 1.11 1.51 1.11 2.56 0 .22-.02.6-.07 1.15a7.737 7.737 0 0 1-.28 1.51l-1.42 4.99c-.11.4-.22.86-.31 1.37s-.14.9-.14 1.16c0 .66.15 1.12.45 1.36.3.24.82.36 1.55.36.35 0 .74-.06 1.18-.18.44-.12.75-.23.95-.32zM30 14.654c0 .87-.33 1.61-.99 2.22-.662.612-1.458.917-2.39.917-.93 0-1.73-.3-2.396-.91-.667-.61-1-1.35-1-2.22 0-.87.333-1.61 1-2.23.667-.61 1.466-.92 2.397-.92.94 0 1.73.31 2.39.93.66.62.99 1.36.99 2.23z"/></g></svg>